<svg width="410" height="404" viewBox="0 0 410 404" fill="none" xmlns="http://www.w3.org/2000/svg" style="background: white;">
<g stroke-width='11'><circle cx="5" cy="5" r="2" fill="black"></circle><circle cx="5" cy="48.333333333333336" r="2" fill="black"></circle><circle cx="5" cy="91.66666666666667" r="2" fill="rgba(0, 0, 0, 0)"></circle><circle cx="5" cy="135" r="2" fill="rgba(0, 0, 0, 0)"></circle><circle cx="5" cy="178.33333333333334" r="2" fill="black"></circle><circle cx="5" cy="221.66666666666669" r="2" fill="black"></circle><circle cx="5" cy="265" r="2" fill="black"></circle><circle cx="5" cy="308.33333333333337" r="2" fill="rgba(0, 0, 0, 0)"></circle><circle cx="5" cy="351.6666666666667" r="2" fill="rgba(0, 0, 0, 0)"></circle><circle cx="5" cy="395" r="2" fill="black"></circle><circle cx="48.333333333333336" cy="5" r="2" fill="black"></circle><circle cx="48.333333333333336" cy="48.333333333333336" r="2" fill="rgba(0, 0, 0, 0)"></circle><circle cx="48.333333333333336" cy="91.66666666666667" r="2" fill="black"></circle><circle cx="48.333333333333336" cy="135" r="2" fill="black"></circle><circle cx="48.333333333333336" cy="178.33333333333334" r="2" fill="rgba(0, 0, 0, 0)"></circle><circle cx="48.333333333333336" cy="221.66666666666669" r="2" fill="rgba(0, 0, 0, 0)"></circle><circle cx="48.333333333333336" cy="265" r="2" fill="black"></circle><circle cx="48.333333333333336" cy="308.33333333333337" r="2" fill="black"></circle><circle cx="48.333333333333336" cy="351.6666666666667" r="2" fill="black"></circle><circle cx="48.333333333333336" cy="395" r="2" fill="rgba(0, 0, 0, 0)"></circle><circle cx="91.66666666666667" cy="5" r="2" fill="rgba(0, 0, 0, 0)"></circle><circle cx="91.66666666666667" cy="48.333333333333336" r="2" fill="rgba(0, 0, 0, 0)"></circle><circle cx="91.66666666666667" cy="91.66666666666667" r="2" fill="black"></circle><circle cx="91.66666666666667" cy="135" r="2" fill="rgba(0, 0, 0, 0)"></circle><circle cx="91.66666666666667" cy="178.33333333333334" r="2" fill="rgba(0, 0, 0, 0)"></circle><circle cx="91.66666666666667" cy="221.66666666666669" r="2" fill="rgba(0, 0, 0, 0)"></circle><circle cx="91.66666666666667" cy="265" r="2" fill="rgba(0, 0, 0, 0)"></circle><circle cx="91.66666666666667" cy="308.33333333333337" r="2" fill="black"></circle><circle cx="91.66666666666667" cy="351.6666666666667" r="2" fill="black"></circle><circle cx="91.66666666666667" cy="395" r="2" fill="black"></circle><circle cx="135" cy="5" r="2" fill="black"></circle><circle cx="135" cy="48.333333333333336" r="2" fill="black"></circle><circle cx="135" cy="91.66666666666667" r="2" fill="black"></circle><circle cx="135" cy="135" r="2" fill="black"></circle><circle cx="135" cy="178.33333333333334" r="2" fill="black"></circle><circle cx="135" cy="221.66666666666669" r="2" fill="black"></circle><circle cx="135" cy="265" r="2" fill="black"></circle><circle cx="135" cy="308.33333333333337" r="2" fill="black"></circle><circle cx="135" cy="351.6666666666667" r="2" fill="black"></circle><circle cx="135" cy="395" r="2" fill="black"></circle><circle cx="178.33333333333334" cy="5" r="2" fill="rgba(0, 0, 0, 0)"></circle><circle cx="178.33333333333334" cy="48.333333333333336" r="2" fill="rgba(0, 0, 0, 0)"></circle><circle cx="178.33333333333334" cy="91.66666666666667" r="2" fill="black"></circle><circle cx="178.33333333333334" cy="135" r="2" fill="black"></circle><circle cx="178.33333333333334" cy="178.33333333333334" r="2" fill="rgba(0, 0, 0, 0)"></circle><circle cx="178.33333333333334" cy="221.66666666666669" r="2" fill="rgba(0, 0, 0, 0)"></circle><circle cx="178.33333333333334" cy="265" r="2" fill="rgba(0, 0, 0, 0)"></circle><circle cx="178.33333333333334" cy="308.33333333333337" r="2" fill="rgba(0, 0, 0, 0)"></circle><circle cx="178.33333333333334" cy="351.6666666666667" r="2" fill="rgba(0, 0, 0, 0)"></circle><circle cx="178.33333333333334" cy="395" r="2" fill="black"></circle><circle cx="221.66666666666669" cy="5" r="2" fill="black"></circle><circle cx="221.66666666666669" cy="48.333333333333336" r="2" fill="black"></circle><circle cx="221.66666666666669" cy="91.66666666666667" r="2" fill="rgba(0, 0, 0, 0)"></circle><circle cx="221.66666666666669" cy="135" r="2" fill="black"></circle><circle cx="221.66666666666669" cy="178.33333333333334" r="2" fill="black"></circle><circle cx="221.66666666666669" cy="221.66666666666669" r="2" fill="black"></circle><circle cx="221.66666666666669" cy="265" r="2" fill="black"></circle><circle cx="221.66666666666669" cy="308.33333333333337" r="2" fill="black"></circle><circle cx="221.66666666666669" cy="351.6666666666667" r="2" fill="rgba(0, 0, 0, 0)"></circle><circle cx="221.66666666666669" cy="395" r="2" fill="black"></circle><circle cx="265" cy="5" r="2" fill="rgba(0, 0, 0, 0)"></circle><circle cx="265" cy="48.333333333333336" r="2" fill="black"></circle><circle cx="265" cy="91.66666666666667" r="2" fill="rgba(0, 0, 0, 0)"></circle><circle cx="265" cy="135" r="2" fill="rgba(0, 0, 0, 0)"></circle><circle cx="265" cy="178.33333333333334" r="2" fill="black"></circle><circle cx="265" cy="221.66666666666669" r="2" fill="rgba(0, 0, 0, 0)"></circle><circle cx="265" cy="265" r="2" fill="black"></circle><circle cx="265" cy="308.33333333333337" r="2" fill="rgba(0, 0, 0, 0)"></circle><circle cx="265" cy="351.6666666666667" r="2" fill="black"></circle><circle cx="265" cy="395" r="2" fill="black"></circle><circle cx="308.33333333333337" cy="5" r="2" fill="black"></circle><circle cx="308.33333333333337" cy="48.333333333333336" r="2" fill="rgba(0, 0, 0, 0)"></circle><circle cx="308.33333333333337" cy="91.66666666666667" r="2" fill="black"></circle><circle cx="308.33333333333337" cy="135" r="2" fill="rgba(0, 0, 0, 0)"></circle><circle cx="308.33333333333337" cy="178.33333333333334" r="2" fill="black"></circle><circle cx="308.33333333333337" cy="221.66666666666669" r="2" fill="black"></circle><circle cx="308.33333333333337" cy="265" r="2" fill="rgba(0, 0, 0, 0)"></circle><circle cx="308.33333333333337" cy="308.33333333333337" r="2" fill="black"></circle><circle cx="308.33333333333337" cy="351.6666666666667" r="2" fill="rgba(0, 0, 0, 0)"></circle><circle cx="308.33333333333337" cy="395" r="2" fill="rgba(0, 0, 0, 0)"></circle><circle cx="351.6666666666667" cy="5" r="2" fill="rgba(0, 0, 0, 0)"></circle><circle cx="351.6666666666667" cy="48.333333333333336" r="2" fill="rgba(0, 0, 0, 0)"></circle><circle cx="351.6666666666667" cy="91.66666666666667" r="2" fill="rgba(0, 0, 0, 0)"></circle><circle cx="351.6666666666667" cy="135" r="2" fill="black"></circle><circle cx="351.6666666666667" cy="178.33333333333334" r="2" fill="rgba(0, 0, 0, 0)"></circle><circle cx="351.6666666666667" cy="221.66666666666669" r="2" fill="black"></circle><circle cx="351.6666666666667" cy="265" r="2" fill="rgba(0, 0, 0, 0)"></circle><circle cx="351.6666666666667" cy="308.33333333333337" r="2" fill="black"></circle><circle cx="351.6666666666667" cy="351.6666666666667" r="2" fill="rgba(0, 0, 0, 0)"></circle><circle cx="351.6666666666667" cy="395" r="2" fill="rgba(0, 0, 0, 0)"></circle><circle cx="395" cy="5" r="2" fill="black"></circle><circle cx="395" cy="48.333333333333336" r="2" fill="black"></circle><circle cx="395" cy="91.66666666666667" r="2" fill="rgba(0, 0, 0, 0)"></circle><circle cx="395" cy="135" r="2" fill="black"></circle><circle cx="395" cy="178.33333333333334" r="2" fill="rgba(0, 0, 0, 0)"></circle><circle cx="395" cy="221.66666666666669" r="2" fill="black"></circle><circle cx="395" cy="265" r="2" fill="black"></circle><circle cx="395" cy="308.33333333333337" r="2" fill="black"></circle><circle cx="395" cy="351.6666666666667" r="2" fill="black"></circle><circle cx="395" cy="395" r="2" fill="black"></circle><line x1="5" x2="48.333333333333336" y1="5" y2="5" stroke="black"></line><line x1="48.333333333333336" x2="91.66666666666667" y1="5" y2="5"></line><line x1="91.66666666666667" x2="135" y1="5" y2="5"></line><line x1="135" x2="178.33333333333334" y1="5" y2="5"></line><line x1="178.33333333333334" x2="221.66666666666669" y1="5" y2="5"></line><line x1="221.66666666666669" x2="265" y1="5" y2="5"></line><line x1="265" x2="308.33333333333337" y1="5" y2="5"></line><line x1="308.33333333333337" x2="351.6666666666667" y1="5" y2="5"></line><line x1="351.6666666666667" x2="395" y1="5" y2="5"></line><line x1="5" x2="48.333333333333336" y1="48.333333333333336" y2="48.333333333333336"></line><line x1="48.333333333333336" x2="91.66666666666667" y1="48.333333333333336" y2="48.333333333333336"></line><line x1="91.66666666666667" x2="135" y1="48.333333333333336" y2="48.333333333333336"></line><line x1="135" x2="178.33333333333334" y1="48.333333333333336" y2="48.333333333333336"></line><line x1="178.33333333333334" x2="221.66666666666669" y1="48.333333333333336" y2="48.333333333333336"></line><line x1="221.66666666666669" x2="265" y1="48.333333333333336" y2="48.333333333333336" stroke="black"></line><line x1="265" x2="308.33333333333337" y1="48.333333333333336" y2="48.333333333333336"></line><line x1="308.33333333333337" x2="351.6666666666667" y1="48.333333333333336" y2="48.333333333333336"></line><line x1="351.6666666666667" x2="395" y1="48.333333333333336" y2="48.333333333333336"></line><line x1="5" x2="48.333333333333336" y1="91.66666666666667" y2="91.66666666666667"></line><line x1="48.333333333333336" x2="91.66666666666667" y1="91.66666666666667" y2="91.66666666666667" stroke="black"></line><line x1="91.66666666666667" x2="135" y1="91.66666666666667" y2="91.66666666666667" stroke="black"></line><line x1="135" x2="178.33333333333334" y1="91.66666666666667" y2="91.66666666666667" stroke="black"></line><line x1="178.33333333333334" x2="221.66666666666669" y1="91.66666666666667" y2="91.66666666666667"></line><line x1="221.66666666666669" x2="265" y1="91.66666666666667" y2="91.66666666666667"></line><line x1="265" x2="308.33333333333337" y1="91.66666666666667" y2="91.66666666666667"></line><line x1="308.33333333333337" x2="351.6666666666667" y1="91.66666666666667" y2="91.66666666666667"></line><line x1="351.6666666666667" x2="395" y1="91.66666666666667" y2="91.66666666666667"></line><line x1="5" x2="48.333333333333336" y1="135" y2="135"></line><line x1="48.333333333333336" x2="91.66666666666667" y1="135" y2="135"></line><line x1="91.66666666666667" x2="135" y1="135" y2="135"></line><line x1="135" x2="178.33333333333334" y1="135" y2="135" stroke="black"></line><line x1="178.33333333333334" x2="221.66666666666669" y1="135" y2="135" stroke="black"></line><line x1="221.66666666666669" x2="265" y1="135" y2="135"></line><line x1="265" x2="308.33333333333337" y1="135" y2="135"></line><line x1="308.33333333333337" x2="351.6666666666667" y1="135" y2="135"></line><line x1="351.6666666666667" x2="395" y1="135" y2="135" stroke="black"></line><line x1="5" x2="48.333333333333336" y1="178.33333333333334" y2="178.33333333333334"></line><line x1="48.333333333333336" x2="91.66666666666667" y1="178.33333333333334" y2="178.33333333333334"></line><line x1="91.66666666666667" x2="135" y1="178.33333333333334" y2="178.33333333333334"></line><line x1="135" x2="178.33333333333334" y1="178.33333333333334" y2="178.33333333333334"></line><line x1="178.33333333333334" x2="221.66666666666669" y1="178.33333333333334" y2="178.33333333333334"></line><line x1="221.66666666666669" x2="265" y1="178.33333333333334" y2="178.33333333333334" stroke="black"></line><line x1="265" x2="308.33333333333337" y1="178.33333333333334" y2="178.33333333333334" stroke="black"></line><line x1="308.33333333333337" x2="351.6666666666667" y1="178.33333333333334" y2="178.33333333333334"></line><line x1="351.6666666666667" x2="395" y1="178.33333333333334" y2="178.33333333333334"></line><line x1="5" x2="48.333333333333336" y1="221.66666666666669" y2="221.66666666666669"></line><line x1="48.333333333333336" x2="91.66666666666667" y1="221.66666666666669" y2="221.66666666666669"></line><line x1="91.66666666666667" x2="135" y1="221.66666666666669" y2="221.66666666666669"></line><line x1="135" x2="178.33333333333334" y1="221.66666666666669" y2="221.66666666666669"></line><line x1="178.33333333333334" x2="221.66666666666669" y1="221.66666666666669" y2="221.66666666666669"></line><line x1="221.66666666666669" x2="265" y1="221.66666666666669" y2="221.66666666666669"></line><line x1="265" x2="308.33333333333337" y1="221.66666666666669" y2="221.66666666666669"></line><line x1="308.33333333333337" x2="351.6666666666667" y1="221.66666666666669" y2="221.66666666666669" stroke="black"></line><line x1="351.6666666666667" x2="395" y1="221.66666666666669" y2="221.66666666666669" stroke="black"></line><line x1="5" x2="48.333333333333336" y1="265" y2="265" stroke="black"></line><line x1="48.333333333333336" x2="91.66666666666667" y1="265" y2="265"></line><line x1="91.66666666666667" x2="135" y1="265" y2="265"></line><line x1="135" x2="178.33333333333334" y1="265" y2="265"></line><line x1="178.33333333333334" x2="221.66666666666669" y1="265" y2="265"></line><line x1="221.66666666666669" x2="265" y1="265" y2="265" stroke="black"></line><line x1="265" x2="308.33333333333337" y1="265" y2="265"></line><line x1="308.33333333333337" x2="351.6666666666667" y1="265" y2="265"></line><line x1="351.6666666666667" x2="395" y1="265" y2="265"></line><line x1="5" x2="48.333333333333336" y1="308.33333333333337" y2="308.33333333333337"></line><line x1="48.333333333333336" x2="91.66666666666667" y1="308.33333333333337" y2="308.33333333333337" stroke="black"></line><line x1="91.66666666666667" x2="135" y1="308.33333333333337" y2="308.33333333333337" stroke="black"></line><line x1="135" x2="178.33333333333334" y1="308.33333333333337" y2="308.33333333333337"></line><line x1="178.33333333333334" x2="221.66666666666669" y1="308.33333333333337" y2="308.33333333333337"></line><line x1="221.66666666666669" x2="265" y1="308.33333333333337" y2="308.33333333333337"></line><line x1="265" x2="308.33333333333337" y1="308.33333333333337" y2="308.33333333333337"></line><line x1="308.33333333333337" x2="351.6666666666667" y1="308.33333333333337" y2="308.33333333333337" stroke="black"></line><line x1="351.6666666666667" x2="395" y1="308.33333333333337" y2="308.33333333333337" stroke="black"></line><line x1="5" x2="48.333333333333336" y1="351.6666666666667" y2="351.6666666666667"></line><line x1="48.333333333333336" x2="91.66666666666667" y1="351.6666666666667" y2="351.6666666666667" stroke="black"></line><line x1="91.66666666666667" x2="135" y1="351.6666666666667" y2="351.6666666666667" stroke="black"></line><line x1="135" x2="178.33333333333334" y1="351.6666666666667" y2="351.6666666666667"></line><line x1="178.33333333333334" x2="221.66666666666669" y1="351.6666666666667" y2="351.6666666666667"></line><line x1="221.66666666666669" x2="265" y1="351.6666666666667" y2="351.6666666666667"></line><line x1="265" x2="308.33333333333337" y1="351.6666666666667" y2="351.6666666666667"></line><line x1="308.33333333333337" x2="351.6666666666667" y1="351.6666666666667" y2="351.6666666666667"></line><line x1="351.6666666666667" x2="395" y1="351.6666666666667" y2="351.6666666666667"></line><line x1="5" x2="48.333333333333336" y1="395" y2="395"></line><line x1="48.333333333333336" x2="91.66666666666667" y1="395" y2="395"></line><line x1="91.66666666666667" x2="135" y1="395" y2="395" stroke="black"></line><line x1="135" x2="178.33333333333334" y1="395" y2="395" stroke="black"></line><line x1="178.33333333333334" x2="221.66666666666669" y1="395" y2="395" stroke="black"></line><line x1="221.66666666666669" x2="265" y1="395" y2="395" stroke="black"></line><line x1="265" x2="308.33333333333337" y1="395" y2="395"></line><line x1="308.33333333333337" x2="351.6666666666667" y1="395" y2="395"></line><line x1="351.6666666666667" x2="395" y1="395" y2="395"></line><line x1="5" x2="5" y1="5" y2="48.333333333333336" stroke="black"></line><line x1="5" x2="5" y1="48.333333333333336" y2="91.66666666666667"></line><line x1="5" x2="5" y1="91.66666666666667" y2="135"></line><line x1="5" x2="5" y1="135" y2="178.33333333333334"></line><line x1="5" x2="5" y1="178.33333333333334" y2="221.66666666666669" stroke="black"></line><line x1="5" x2="5" y1="221.66666666666669" y2="265" stroke="black"></line><line x1="5" x2="5" y1="265" y2="308.33333333333337"></line><line x1="5" x2="5" y1="308.33333333333337" y2="351.6666666666667"></line><line x1="5" x2="5" y1="351.6666666666667" y2="395"></line><line x1="48.333333333333336" x2="48.333333333333336" y1="5" y2="48.333333333333336"></line><line x1="48.333333333333336" x2="48.333333333333336" y1="48.333333333333336" y2="91.66666666666667"></line><line x1="48.333333333333336" x2="48.333333333333336" y1="91.66666666666667" y2="135" stroke="black"></line><line x1="48.333333333333336" x2="48.333333333333336" y1="135" y2="178.33333333333334"></line><line x1="48.333333333333336" x2="48.333333333333336" y1="178.33333333333334" y2="221.66666666666669"></line><line x1="48.333333333333336" x2="48.333333333333336" y1="221.66666666666669" y2="265"></line><line x1="48.333333333333336" x2="48.333333333333336" y1="265" y2="308.33333333333337" stroke="black"></line><line x1="48.333333333333336" x2="48.333333333333336" y1="308.33333333333337" y2="351.6666666666667" stroke="black"></line><line x1="48.333333333333336" x2="48.333333333333336" y1="351.6666666666667" y2="395"></line><line x1="91.66666666666667" x2="91.66666666666667" y1="5" y2="48.333333333333336"></line><line x1="91.66666666666667" x2="91.66666666666667" y1="48.333333333333336" y2="91.66666666666667"></line><line x1="91.66666666666667" x2="91.66666666666667" y1="91.66666666666667" y2="135"></line><line x1="91.66666666666667" x2="91.66666666666667" y1="135" y2="178.33333333333334"></line><line x1="91.66666666666667" x2="91.66666666666667" y1="178.33333333333334" y2="221.66666666666669"></line><line x1="91.66666666666667" x2="91.66666666666667" y1="221.66666666666669" y2="265"></line><line x1="91.66666666666667" x2="91.66666666666667" y1="265" y2="308.33333333333337"></line><line x1="91.66666666666667" x2="91.66666666666667" y1="308.33333333333337" y2="351.6666666666667" stroke="black"></line><line x1="91.66666666666667" x2="91.66666666666667" y1="351.6666666666667" y2="395" stroke="black"></line><line x1="135" x2="135" y1="5" y2="48.333333333333336" stroke="black"></line><line x1="135" x2="135" y1="48.333333333333336" y2="91.66666666666667" stroke="black"></line><line x1="135" x2="135" y1="91.66666666666667" y2="135" stroke="black"></line><line x1="135" x2="135" y1="135" y2="178.33333333333334" stroke="black"></line><line x1="135" x2="135" y1="178.33333333333334" y2="221.66666666666669" stroke="black"></line><line x1="135" x2="135" y1="221.66666666666669" y2="265" stroke="black"></line><line x1="135" x2="135" y1="265" y2="308.33333333333337" stroke="black"></line><line x1="135" x2="135" y1="308.33333333333337" y2="351.6666666666667" stroke="black"></line><line x1="135" x2="135" y1="351.6666666666667" y2="395" stroke="black"></line><line x1="178.33333333333334" x2="178.33333333333334" y1="5" y2="48.333333333333336"></line><line x1="178.33333333333334" x2="178.33333333333334" y1="48.333333333333336" y2="91.66666666666667"></line><line x1="178.33333333333334" x2="178.33333333333334" y1="91.66666666666667" y2="135" stroke="black"></line><line x1="178.33333333333334" x2="178.33333333333334" y1="135" y2="178.33333333333334"></line><line x1="178.33333333333334" x2="178.33333333333334" y1="178.33333333333334" y2="221.66666666666669"></line><line x1="178.33333333333334" x2="178.33333333333334" y1="221.66666666666669" y2="265"></line><line x1="178.33333333333334" x2="178.33333333333334" y1="265" y2="308.33333333333337"></line><line x1="178.33333333333334" x2="178.33333333333334" y1="308.33333333333337" y2="351.6666666666667"></line><line x1="178.33333333333334" x2="178.33333333333334" y1="351.6666666666667" y2="395"></line><line x1="221.66666666666669" x2="221.66666666666669" y1="5" y2="48.333333333333336" stroke="black"></line><line x1="221.66666666666669" x2="221.66666666666669" y1="48.333333333333336" y2="91.66666666666667"></line><line x1="221.66666666666669" x2="221.66666666666669" y1="91.66666666666667" y2="135"></line><line x1="221.66666666666669" x2="221.66666666666669" y1="135" y2="178.33333333333334" stroke="black"></line><line x1="221.66666666666669" x2="221.66666666666669" y1="178.33333333333334" y2="221.66666666666669" stroke="black"></line><line x1="221.66666666666669" x2="221.66666666666669" y1="221.66666666666669" y2="265" stroke="black"></line><line x1="221.66666666666669" x2="221.66666666666669" y1="265" y2="308.33333333333337" stroke="black"></line><line x1="221.66666666666669" x2="221.66666666666669" y1="308.33333333333337" y2="351.6666666666667"></line><line x1="221.66666666666669" x2="221.66666666666669" y1="351.6666666666667" y2="395"></line><line x1="265" x2="265" y1="5" y2="48.333333333333336"></line><line x1="265" x2="265" y1="48.333333333333336" y2="91.66666666666667"></line><line x1="265" x2="265" y1="91.66666666666667" y2="135"></line><line x1="265" x2="265" y1="135" y2="178.33333333333334"></line><line x1="265" x2="265" y1="178.33333333333334" y2="221.66666666666669"></line><line x1="265" x2="265" y1="221.66666666666669" y2="265"></line><line x1="265" x2="265" y1="265" y2="308.33333333333337"></line><line x1="265" x2="265" y1="308.33333333333337" y2="351.6666666666667"></line><line x1="265" x2="265" y1="351.6666666666667" y2="395" stroke="black"></line><line x1="308.33333333333337" x2="308.33333333333337" y1="5" y2="48.333333333333336"></line><line x1="308.33333333333337" x2="308.33333333333337" y1="48.333333333333336" y2="91.66666666666667"></line><line x1="308.33333333333337" x2="308.33333333333337" y1="91.66666666666667" y2="135"></line><line x1="308.33333333333337" x2="308.33333333333337" y1="135" y2="178.33333333333334"></line><line x1="308.33333333333337" x2="308.33333333333337" y1="178.33333333333334" y2="221.66666666666669" stroke="black"></line><line x1="308.33333333333337" x2="308.33333333333337" y1="221.66666666666669" y2="265"></line><line x1="308.33333333333337" x2="308.33333333333337" y1="265" y2="308.33333333333337"></line><line x1="308.33333333333337" x2="308.33333333333337" y1="308.33333333333337" y2="351.6666666666667"></line><line x1="308.33333333333337" x2="308.33333333333337" y1="351.6666666666667" y2="395"></line><line x1="351.6666666666667" x2="351.6666666666667" y1="5" y2="48.333333333333336"></line><line x1="351.6666666666667" x2="351.6666666666667" y1="48.333333333333336" y2="91.66666666666667"></line><line x1="351.6666666666667" x2="351.6666666666667" y1="91.66666666666667" y2="135"></line><line x1="351.6666666666667" x2="351.6666666666667" y1="135" y2="178.33333333333334"></line><line x1="351.6666666666667" x2="351.6666666666667" y1="178.33333333333334" y2="221.66666666666669"></line><line x1="351.6666666666667" x2="351.6666666666667" y1="221.66666666666669" y2="265"></line><line x1="351.6666666666667" x2="351.6666666666667" y1="265" y2="308.33333333333337"></line><line x1="351.6666666666667" x2="351.6666666666667" y1="308.33333333333337" y2="351.6666666666667"></line><line x1="351.6666666666667" x2="351.6666666666667" y1="351.6666666666667" y2="395"></line><line x1="395" x2="395" y1="5" y2="48.333333333333336" stroke="black"></line><line x1="395" x2="395" y1="48.333333333333336" y2="91.66666666666667"></line><line x1="395" x2="395" y1="91.66666666666667" y2="135"></line><line x1="395" x2="395" y1="135" y2="178.33333333333334"></line><line x1="395" x2="395" y1="178.33333333333334" y2="221.66666666666669"></line><line x1="395" x2="395" y1="221.66666666666669" y2="265" stroke="black"></line><line x1="395" x2="395" y1="265" y2="308.33333333333337" stroke="black"></line><line x1="395" x2="395" y1="308.33333333333337" y2="351.6666666666667" stroke="black"></line><line x1="395" x2="395" y1="351.6666666666667" y2="395" stroke="black"></line></g>
</svg>